<svg width="19" height="16" viewBox="0 0 19 16" fill="none" xmlns="http://www.w3.org/2000/svg">
<path d="M17.6744 0H1.30233C0.956927 0 0.625676 0.137209 0.381442 0.381442C0.137209 0.625676 0 0.956927 0 1.30233V14.6977C0 15.0431 0.137209 15.3743 0.381442 15.6186C0.625676 15.8628 0.956927 16 1.30233 16H17.6744C18.0198 16 18.3511 15.8628 18.5953 15.6186C18.8395 15.3743 18.9767 15.0431 18.9767 14.6977V1.30233C18.9767 0.956927 18.8395 0.625676 18.5953 0.381442C18.3511 0.137209 18.0198 0 17.6744 0ZM17.8605 14.6977C17.8605 14.747 17.8409 14.7943 17.806 14.8292C17.7711 14.8641 17.7238 14.8837 17.6744 14.8837H1.30233C1.25298 14.8837 1.20566 14.8641 1.17077 14.8292C1.13588 14.7943 1.11628 14.747 1.11628 14.6977V1.30233C1.11628 1.25298 1.13588 1.20566 1.17077 1.17077C1.20566 1.13588 1.25298 1.11628 1.30233 1.11628H17.6744C17.7238 1.11628 17.7711 1.13588 17.806 1.17077C17.8409 1.20566 17.8605 1.25298 17.8605 1.30233V14.6977ZM13.7674 4.27907C13.7674 5.41395 13.3166 6.50235 12.5141 7.30483C11.7117 8.10731 10.6233 8.55814 9.48837 8.55814C8.35349 8.55814 7.26509 8.10731 6.46261 7.30483C5.66013 6.50235 5.2093 5.41395 5.2093 4.27907C5.2093 4.13104 5.26811 3.98908 5.37278 3.88441C5.47745 3.77973 5.61941 3.72093 5.76744 3.72093C5.91547 3.72093 6.05743 3.77973 6.16211 3.88441C6.26678 3.98908 6.32558 4.13104 6.32558 4.27907C6.32558 5.11789 6.6588 5.92236 7.25194 6.5155C7.84508 7.10864 8.64955 7.44186 9.48837 7.44186C10.3272 7.44186 11.1317 7.10864 11.7248 6.5155C12.3179 5.92236 12.6512 5.11789 12.6512 4.27907C12.6512 4.13104 12.71 3.98908 12.8146 3.88441C12.9193 3.77973 13.0613 3.72093 13.2093 3.72093C13.3573 3.72093 13.4993 3.77973 13.604 3.88441C13.7086 3.98908 13.7674 4.13104 13.7674 4.27907Z" fill="#FAFAFA"/>
</svg>
