<svg width="25" height="30" viewBox="0 0 25 30" fill="none" xmlns="http://www.w3.org/2000/svg">
<path d="M20.5354 16.1755C20.5022 12.4904 23.5527 10.6976 23.6922 10.6141C21.9646 8.09531 19.2868 7.75115 18.3458 7.72371C16.0968 7.48704 13.9153 9.06946 12.7696 9.06946C11.6011 9.06946 9.83691 7.74658 7.93549 7.78546C5.48868 7.82319 3.19966 9.23982 1.94424 11.4397C-0.646631 15.9251 1.28566 22.5166 3.76791 26.1422C5.00961 27.9179 6.46054 29.9005 8.35968 29.8307C10.2176 29.7541 10.9117 28.6462 13.1538 28.6462C15.3754 28.6462 16.0271 29.8307 17.964 29.7861C19.958 29.7541 21.2134 28.0025 22.4117 26.2108C23.8466 24.1756 24.4228 22.1713 24.4457 22.0684C24.3988 22.0524 20.5731 20.5923 20.5354 16.1755Z" fill="#FAFAFA"/>
<path d="M16.8766 5.33868C17.8759 4.08898 18.5596 2.38879 18.3698 0.663452C16.9234 0.727481 15.1146 1.6639 14.073 2.88616C13.1515 3.96321 12.3283 5.72857 12.5409 7.38874C14.1656 7.50994 15.8338 6.56894 16.8766 5.33868Z" fill="#FAFAFA"/>
</svg>
