<svg width="29" height="25" viewBox="0 0 22 19" fill="none" xmlns="http://www.w3.org/2000/svg">
<path d="M17.6744 3H1.30233C0.956927 3 0.625676 3.13721 0.381442 3.38144C0.137209 3.62568 0 3.95693 0 4.30233V17.6977C0 18.0431 0.137209 18.3743 0.381442 18.6186C0.625676 18.8628 0.956927 19 1.30233 19H17.6744C18.0198 19 18.3511 18.8628 18.5953 18.6186C18.8395 18.3743 18.9767 18.0431 18.9767 17.6977V4.30233C18.9767 3.95693 18.8395 3.62568 18.5953 3.38144C18.3511 3.13721 18.0198 3 17.6744 3ZM17.8605 17.6977C17.8605 17.747 17.8409 17.7943 17.806 17.8292C17.7711 17.8641 17.7238 17.8837 17.6744 17.8837H1.30233C1.25298 17.8837 1.20566 17.8641 1.17077 17.8292C1.13588 17.7943 1.11628 17.747 1.11628 17.6977V4.30233C1.11628 4.25298 1.13588 4.20566 1.17077 4.17077C1.20566 4.13588 1.25298 4.11628 1.30233 4.11628H17.6744C17.7238 4.11628 17.7711 4.13588 17.806 4.17077C17.8409 4.20566 17.8605 4.25298 17.8605 4.30233V17.6977ZM13.7674 7.27907C13.7674 8.41395 13.3166 9.50235 12.5141 10.3048C11.7117 11.1073 10.6233 11.5581 9.48837 11.5581C8.35349 11.5581 7.26509 11.1073 6.46261 10.3048C5.66013 9.50235 5.2093 8.41395 5.2093 7.27907C5.2093 7.13104 5.26811 6.98908 5.37278 6.88441C5.47745 6.77973 5.61941 6.72093 5.76744 6.72093C5.91547 6.72093 6.05743 6.77973 6.16211 6.88441C6.26678 6.98908 6.32558 7.13104 6.32558 7.27907C6.32558 8.11789 6.6588 8.92236 7.25194 9.5155C7.84508 10.1086 8.64955 10.4419 9.48837 10.4419C10.3272 10.4419 11.1317 10.1086 11.7248 9.5155C12.3179 8.92236 12.6512 8.11789 12.6512 7.27907C12.6512 7.13104 12.71 6.98908 12.8146 6.88441C12.9193 6.77973 13.0613 6.72093 13.2093 6.72093C13.3573 6.72093 13.4993 6.77973 13.604 6.88441C13.7086 6.98908 13.7674 7.13104 13.7674 7.27907Z" fill="#FAFAFA"/>
<circle cx="18.5" cy="3.5" r="3.5" fill="#CE4F0D"/>
</svg>
