<svg width="29" height="24" viewBox="0 0 29 24" fill="none" xmlns="http://www.w3.org/2000/svg">
<path d="M26.5116 0H1.95349C1.43539 0 0.938514 0.205813 0.572164 0.572164C0.205813 0.938514 0 1.43539 0 1.95349V22.0465C0 22.5646 0.205813 23.0615 0.572164 23.4278C0.938514 23.7942 1.43539 24 1.95349 24H26.5116C27.0297 24 27.5266 23.7942 27.893 23.4278C28.2593 23.0615 28.4651 22.5646 28.4651 22.0465V1.95349C28.4651 1.43539 28.2593 0.938514 27.893 0.572164C27.5266 0.205813 27.0297 0 26.5116 0ZM26.7907 22.0465C26.7907 22.1205 26.7613 22.1915 26.709 22.2438C26.6566 22.2962 26.5856 22.3256 26.5116 22.3256H1.95349C1.87947 22.3256 1.80849 22.2962 1.75616 22.2438C1.70382 22.1915 1.67442 22.1205 1.67442 22.0465V1.95349C1.67442 1.87947 1.70382 1.80849 1.75616 1.75616C1.80849 1.70382 1.87947 1.67442 1.95349 1.67442H26.5116C26.5856 1.67442 26.6566 1.70382 26.709 1.75616C26.7613 1.80849 26.7907 1.87947 26.7907 1.95349V22.0465ZM20.6512 6.4186C20.6512 8.12092 19.9749 9.75352 18.7712 10.9572C17.5675 12.161 15.9349 12.8372 14.2326 12.8372C12.5302 12.8372 10.8976 12.161 9.69392 10.9572C8.4902 9.75352 7.81395 8.12092 7.81395 6.4186C7.81395 6.19656 7.90216 5.98362 8.05917 5.82661C8.21617 5.6696 8.42912 5.5814 8.65116 5.5814C8.8732 5.5814 9.08615 5.6696 9.24316 5.82661C9.40017 5.98362 9.48837 6.19656 9.48837 6.4186C9.48837 7.67684 9.9882 8.88354 10.8779 9.77325C11.7676 10.663 12.9743 11.1628 14.2326 11.1628C15.4908 11.1628 16.6975 10.663 17.5872 9.77325C18.4769 8.88354 18.9767 7.67684 18.9767 6.4186C18.9767 6.19656 19.0649 5.98362 19.222 5.82661C19.379 5.6696 19.5919 5.5814 19.814 5.5814C20.036 5.5814 20.2489 5.6696 20.4059 5.82661C20.563 5.98362 20.6512 6.19656 20.6512 6.4186Z" fill="#FAFAFA"/>
</svg>
