<svg width="29" height="32" viewBox="0 0 29 32" fill="none" xmlns="http://www.w3.org/2000/svg">
<path d="M1.59447 31.2379L16.2952 15.9904L1.60679 0.770264C1.21446 1.00723 0.97168 1.55588 0.97168 2.27406V29.7487C0.976941 30.4669 1.21094 30.9755 1.59447 31.2379Z" fill="#FAFAFA"/>
<path d="M16.8217 15.5694L21.2006 11.027L3.36836 0.8851C3.06809 0.70414 2.72701 0.608556 2.37964 0.608032L16.82 15.5675L16.8217 15.5694Z" fill="#FAFAFA"/>
<path d="M16.8218 16.4133L2.33569 31.4385C2.69928 31.4448 3.05741 31.3463 3.37016 31.1541L21.2376 20.9849L16.8218 16.4133Z" fill="#FAFAFA"/>
<path d="M27.6607 14.7072L21.7265 11.3259L17.228 15.9922L21.76 20.6877L27.6589 17.3156C28.9133 16.5992 28.9132 15.4199 27.6607 14.7072Z" fill="#FAFAFA"/>
</svg>
