<svg width="29" height="24" viewBox="0 0 29 24" fill="none" xmlns="http://www.w3.org/2000/svg">
<path d="M20.8879 0C18.2074 0 15.8767 1.20878 14.5058 3.23447C13.1349 1.20878 10.8042 0 8.12366 0C6.0932 0.00236473 4.14659 0.810007 2.71084 2.24575C1.27509 3.6815 0.467453 5.62812 0.465088 7.65857C0.465088 11.3857 2.78819 15.2648 7.37056 19.186C9.47035 20.9752 11.7385 22.5569 14.1433 23.9088C14.2547 23.9687 14.3793 24 14.5058 24C14.6323 24 14.7569 23.9687 14.8683 23.9088C17.2731 22.5569 19.5412 20.9752 21.641 19.186C26.2234 15.2648 28.5465 11.3857 28.5465 7.65857C28.5441 5.62812 27.7365 3.6815 26.3008 2.24575C24.865 0.810007 22.9184 0.00236473 20.8879 0ZM14.5058 22.3515C12.4112 21.1428 1.9968 14.7708 1.9968 7.65857C1.99849 6.03414 2.64454 4.47674 3.79318 3.32809C4.94182 2.17945 6.49923 1.5334 8.12366 1.53171C10.7123 1.53171 12.886 2.91408 13.7974 5.14017C13.8551 5.28064 13.9532 5.40078 14.0794 5.48534C14.2055 5.56989 14.3539 5.61503 14.5058 5.61503C14.6577 5.61503 14.8061 5.56989 14.9322 5.48534C15.0584 5.40078 15.1565 5.28064 15.2142 5.14017C16.1256 2.91408 18.2993 1.53171 20.8879 1.53171C22.5124 1.5334 24.0698 2.17945 25.2184 3.32809C26.3671 4.47674 27.0131 6.03414 27.0148 7.65857C27.0148 14.7708 16.6004 21.1428 14.5058 22.3515Z" fill="#FAFAFA"/>
</svg>
