<svg width="11" height="12" viewBox="0 0 11 12" fill="none" xmlns="http://www.w3.org/2000/svg">
<path d="M9 5.50002H2C1.44772 5.50002 1 5.94773 1 6.50002V10C1 10.5523 1.44772 11 2 11H9C9.55229 11 10 10.5523 10 10V6.50002C10 5.94773 9.55229 5.50002 9 5.50002Z" fill="#FAFAFA" stroke="#898384" stroke-width="1.02222" stroke-linecap="round" stroke-linejoin="round"/>
<path d="M3 5.5V3.5C3 2.83696 3.26339 2.20107 3.73223 1.73223C4.20107 1.26339 4.83696 1 5.5 1C6.16304 1 6.79893 1.26339 7.26777 1.73223C7.73661 2.20107 8 2.83696 8 3.5V5.5" fill="#FAFAFA"/>
<path d="M3 5.5V3.5C3 2.83696 3.26339 2.20107 3.73223 1.73223C4.20107 1.26339 4.83696 1 5.5 1C6.16304 1 6.79893 1.26339 7.26777 1.73223C7.73661 2.20107 8 2.83696 8 3.5V5.5" stroke="#898384" stroke-width="1.02222" stroke-linecap="round" stroke-linejoin="round"/>
</svg>
