<svg width="122" height="33" viewBox="0 0 122 33" fill="none" xmlns="http://www.w3.org/2000/svg">
<path d="M19 6.64372H22.0429V12.7421H22.1443C22.3923 11.6579 22.7755 10.6981 23.2939 9.86237C23.8123 9.02662 24.4209 8.32643 25.1196 7.76176C25.8184 7.17451 26.596 6.73407 27.4525 6.44045C28.3316 6.14682 29.2445 6 30.1912 6C31.2279 6 32.2423 6.1807 33.234 6.54208C34.2484 6.88088 35.15 7.42296 35.9388 8.16832C36.7277 8.8911 37.3589 9.80588 37.8322 10.9126C38.3281 11.9968 38.576 13.2842 38.576 14.7749C38.576 16.2882 38.3394 17.5982 37.866 18.705C37.4152 19.8117 36.8066 20.7265 36.0403 21.4493C35.274 22.1721 34.3948 22.7141 33.4031 23.0755C32.4339 23.4144 31.4421 23.5837 30.4278 23.5837C29.436 23.5837 28.4894 23.4483 27.5878 23.1772C26.7087 22.9061 25.9085 22.4996 25.1872 21.9575C24.466 21.3928 23.8461 20.7039 23.3277 19.8908C22.8093 19.0551 22.4148 18.0839 22.1443 16.9771H22.0429L22.1105 31.5455H19.0338L19 6.64372ZM22.1443 14.8088C22.1443 15.4412 22.2796 16.1188 22.5501 16.8416C22.8431 17.5643 23.2713 18.242 23.8348 18.8744C24.3983 19.4843 25.1084 19.9925 25.9649 20.399C26.8439 20.8056 27.8695 21.0088 29.0416 21.0088C30.1461 21.0088 31.1153 20.8395 31.9493 20.5007C32.7832 20.1618 33.4819 19.7101 34.0455 19.1455C34.609 18.5582 35.0372 17.8919 35.3302 17.1465C35.6233 16.4011 35.7697 15.6219 35.7697 14.8088C35.7697 14.0183 35.6233 13.2504 35.3302 12.5049C35.0598 11.737 34.6315 11.0594 34.0455 10.4721C33.4819 9.88486 32.7607 9.42188 31.8816 9.08308C31.0251 8.7217 30.0108 8.541 28.8387 8.541C27.7117 8.541 26.7312 8.74428 25.8972 9.15085C25.0633 9.5574 24.3645 10.0769 23.801 10.7094C23.2375 11.3417 22.8205 12.0307 22.5501 12.776C22.2796 13.4988 22.1443 14.1763 22.1443 14.8088Z" fill="#FAFAFA"/>
<path d="M41 7.64372H44.0429V13.7421H44.1443C44.3923 12.6579 44.7755 11.6981 45.2939 10.8624C45.8123 10.0266 46.4209 9.32643 47.1196 8.76176C47.8184 8.17451 48.596 7.73407 49.4525 7.44045C50.3316 7.14682 51.2445 7 52.1912 7C53.2279 7 54.2423 7.1807 55.234 7.54208C56.2484 7.88088 57.15 8.42296 57.9388 9.16832C58.7277 9.8911 59.3589 10.8059 59.8322 11.9126C60.3281 12.9968 60.576 14.2842 60.576 15.7749C60.576 17.2882 60.3394 18.5982 59.866 19.705C59.4152 20.8117 58.8066 21.7265 58.0403 22.4493C57.274 23.1721 56.3948 23.7141 55.4031 24.0755C54.4339 24.4144 53.4421 24.5837 52.4278 24.5837C51.436 24.5837 50.4894 24.4483 49.5878 24.1772C48.7087 23.9061 47.9085 23.4996 47.1872 22.9575C46.466 22.3928 45.8461 21.7039 45.3277 20.8908C44.8093 20.0551 44.4148 19.0839 44.1443 17.9771H44.0429L44.1105 32.5455H41.0338L41 7.64372ZM44.1443 15.8088C44.1443 16.4412 44.2796 17.1188 44.5501 17.8416C44.8431 18.5643 45.2713 19.242 45.8348 19.8744C46.3983 20.4843 47.1084 20.9925 47.9649 21.399C48.8439 21.8056 49.8695 22.0088 51.0416 22.0088C52.1461 22.0088 53.1153 21.8395 53.9493 21.5007C54.7832 21.1618 55.4819 20.7101 56.0455 20.1455C56.609 19.5582 57.0372 18.8919 57.3302 18.1465C57.6233 17.4011 57.7697 16.6219 57.7697 15.8088C57.7697 15.0183 57.6233 14.2504 57.3302 13.5049C57.0598 12.737 56.6315 12.0594 56.0455 11.4721C55.4819 10.8849 54.7607 10.4219 53.8816 10.0831C53.0251 9.7217 52.0108 9.541 50.8387 9.541C49.7117 9.541 48.7312 9.74428 47.8972 10.1508C47.0633 10.5574 46.3645 11.0769 45.801 11.7094C45.2375 12.3417 44.8205 13.0307 44.5501 13.776C44.2796 14.4988 44.1443 15.1763 44.1443 15.8088Z" fill="#FAFAFA"/>
<path d="M14.0988 23.7028L14.2679 15.2328H14.1664C13.8058 16.3848 13.3437 17.4915 12.7802 18.5531C12.2167 19.5921 11.5631 20.5181 10.8192 21.3312C10.0754 22.1444 9.24149 22.7881 8.31729 23.2624C7.41568 23.7367 6.4352 23.9739 5.37583 23.9739C4.63199 23.9739 3.93324 23.8384 3.27958 23.5674C2.62593 23.2962 2.05115 22.9349 1.55526 22.4831C1.08196 22.0088 0.698747 21.4668 0.405711 20.8569C0.135269 20.2471 0 19.6034 0 18.9258C0 17.9319 0.247945 17.0962 0.743837 16.4187C1.26222 15.7184 1.92718 15.1425 2.7386 14.6908C3.57262 14.2165 4.49672 13.8438 5.5111 13.5727C6.54787 13.2791 7.58475 13.0307 8.62162 12.8273C9.68099 12.6015 10.6953 12.3982 11.6645 12.2176C12.6337 12.0142 13.4677 11.7771 14.1664 11.506V9.64264H1.75812V7H16.9389V23.7028H14.0988ZM3.07673 18.8241C3.07673 19.5469 3.34717 20.1681 3.88815 20.6876C4.45173 21.1844 5.16167 21.4329 6.01819 21.4329C6.8747 21.4329 7.68613 21.2635 8.45256 20.9247C9.24139 20.5633 9.97402 20.0777 10.6502 19.4678C11.3489 18.858 11.9801 18.1579 12.5436 17.3672C13.1296 16.5541 13.648 15.6845 14.0988 14.7586V14.0131C13.5128 14.2165 12.8253 14.4084 12.0364 14.5891C11.27 14.7473 10.4811 14.9053 9.66969 15.0635C8.85827 15.2215 8.05804 15.4022 7.26921 15.6056C6.48029 15.7862 5.77024 16.0234 5.13918 16.317C4.53061 16.588 4.03472 16.9268 3.6515 17.3334C3.26829 17.74 3.07673 18.2368 3.07673 18.8241Z" fill="#FAFAFA"/>
<path d="M82 6.55055H85.1782L85.0767 13.1572H85.212C85.4599 12.1407 85.8432 11.1808 86.3615 10.2774C86.8799 9.3513 87.5336 8.56076 88.3225 7.90575C89.1115 7.22815 90.0356 6.71995 91.0949 6.38115C92.1769 6.04235 93.394 5.92942 94.7464 6.04235V9.3287C93.2587 8.96732 91.9176 8.93344 90.723 9.22707C89.5284 9.4981 88.5141 9.94984 87.6802 10.5823C86.8686 11.1921 86.2376 11.9036 85.7868 12.7167C85.3585 13.5298 85.1444 14.2865 85.1444 14.9866L85.0767 23.2534H82V6.55055Z" fill="#FAFAFA"/>
<path d="M77.0988 23.7028L77.2679 15.2328H77.1664C76.8058 16.3848 76.3438 17.4915 75.7802 18.5531C75.2167 19.5921 74.5631 20.5181 73.8192 21.3312C73.0754 22.1444 72.2415 22.7881 71.3173 23.2624C70.4157 23.7367 69.4352 23.9739 68.3758 23.9739C67.632 23.9739 66.9332 23.8384 66.2796 23.5674C65.6259 23.2962 65.0512 22.9349 64.5554 22.4831C64.082 22.0088 63.6987 21.4668 63.4058 20.8569C63.1353 20.2471 63 19.6034 63 18.9258C63 17.9319 63.2479 17.0962 63.7438 16.4187C64.2623 15.7184 64.9272 15.1425 65.7387 14.6908C66.5726 14.2165 67.4968 13.8438 68.5111 13.5727C69.548 13.2791 70.5847 13.0307 71.6216 12.8273C72.681 12.6015 73.6953 12.3982 74.6646 12.2176C75.6338 12.0142 76.4678 11.7771 77.1664 11.506V9.64264H64.7582V7H79.9389V23.7028H77.0988ZM66.0767 18.8241C66.0767 19.5469 66.3473 20.1681 66.8883 20.6876C67.4517 21.1844 68.1617 21.4329 69.0182 21.4329C69.8748 21.4329 70.6862 21.2635 71.4526 20.9247C72.2415 20.5633 72.974 20.0777 73.6502 19.4678C74.3489 18.858 74.9801 18.1579 75.5436 17.3672C76.1296 16.5541 76.648 15.6845 77.0988 14.7586V14.0131C76.5128 14.2165 75.8253 14.4084 75.0365 14.5891C74.27 14.7473 73.4812 14.9053 72.6697 15.0635C71.8583 15.2215 71.0581 15.4022 70.2692 15.6056C69.4803 15.7862 68.7703 16.0234 68.1392 16.317C67.5306 16.588 67.0347 16.9268 66.6515 17.3334C66.2684 17.74 66.0767 18.2368 66.0767 18.8241Z" fill="#FAFAFA"/>
<path d="M114.595 18.5356C114.393 18.9873 114.1 19.5068 113.716 20.0941C113.334 20.6587 112.793 21.2008 112.094 21.7204C111.417 22.2398 110.561 22.6802 109.524 23.0417C108.487 23.4031 107.214 23.5837 105.703 23.5837C104.058 23.5837 102.627 23.3692 101.41 22.94C100.192 22.4883 99.1782 21.8784 98.3667 21.1105C97.5779 20.32 96.9805 19.3939 96.5748 18.3324C96.1917 17.2707 96 16.1301 96 14.9105C96 13.3971 96.2705 12.0871 96.8115 10.9804C97.3524 9.85107 98.0512 8.92498 98.9077 8.2022C99.7868 7.45685 100.779 6.90347 101.883 6.54208C102.987 6.1807 104.103 6 105.23 6C106.425 6 107.597 6.19198 108.746 6.57596C109.918 6.93735 110.944 7.51331 111.823 8.30385C112.725 9.09438 113.424 10.0995 113.919 11.3191C114.438 12.5162 114.652 13.9505 114.561 15.6219L99.1105 15.6558C99.1331 16.4237 99.2909 17.1353 99.5839 17.7903C99.8995 18.4226 100.339 18.976 100.903 19.4504C101.489 19.9247 102.176 20.2974 102.965 20.5684C103.776 20.8169 104.689 20.9411 105.703 20.9411C106.695 20.9411 107.529 20.8169 108.205 20.5684C108.904 20.32 109.479 20.0264 109.93 19.6875C110.38 19.3261 110.73 18.9534 110.978 18.5695C111.249 18.1629 111.451 17.8128 111.587 17.5193L114.595 18.5356ZM105.298 8.60876C104.577 8.60876 103.866 8.7104 103.168 8.91368C102.492 9.11696 101.872 9.42188 101.308 9.82848C100.745 10.235 100.26 10.7545 99.8544 11.3869C99.4712 11.9968 99.2233 12.7083 99.1105 13.5214H111.62C111.553 12.6857 111.316 11.9629 110.911 11.353C110.504 10.7432 109.997 10.235 109.389 9.82848C108.803 9.42188 108.149 9.11696 107.428 8.91368C106.707 8.7104 105.997 8.60876 105.298 8.60876Z" fill="#FAFAFA"/>
<path d="M121.01 23.5127H118L118.068 0H121.144L121.01 23.5127Z" fill="#FAFAFA"/>
</svg>
