<svg width="50" height="32" viewBox="0 0 50 32" fill="none" xmlns="http://www.w3.org/2000/svg">
<rect width="50" height="32" rx="3" fill="#F9F9F9"/>
<path d="M29.3632 23.8646H20.614V8.14075H29.3632V23.8646Z" fill="#FF5F00"/>
<path d="M21.1745 16.0013C21.1745 12.8117 22.6679 9.97044 24.9936 8.13943C23.2929 6.8005 21.1465 6.00134 18.8139 6.00134C13.2916 6.00134 8.81519 10.4784 8.81519 16.0013C8.81519 21.5243 13.2916 26.0013 18.8139 26.0013C21.1465 26.0013 23.2929 25.2022 24.9936 23.8633C22.6679 22.0322 21.1745 19.191 21.1745 16.0013Z" fill="#EB001B"/>
<path d="M41.1632 16.0013C41.1632 21.5243 36.6867 26.0013 31.1644 26.0013C28.8318 26.0013 26.6854 25.2022 24.9841 23.8633C27.3104 22.0322 28.8038 19.191 28.8038 16.0013C28.8038 12.8117 27.3104 9.97044 24.9841 8.13943C26.6854 6.8005 28.8318 6.00134 31.1644 6.00134C36.6867 6.00134 41.1632 10.4784 41.1632 16.0013Z" fill="#F79E1B"/>
<path d="M16.3391 16.0646C16.3391 15.6278 16.6253 15.269 17.0931 15.269C17.54 15.269 17.8417 15.6123 17.8417 16.0646C17.8417 16.5169 17.54 16.8602 17.0931 16.8602C16.6253 16.8602 16.3391 16.5014 16.3391 16.0646ZM18.3511 16.0646V14.822H17.8107V15.1238C17.6394 14.9 17.3793 14.7596 17.0258 14.7596C16.329 14.7596 15.7827 15.3059 15.7827 16.0646C15.7827 16.8239 16.329 17.3696 17.0258 17.3696C17.3793 17.3696 17.6394 17.2292 17.8107 17.0054V17.3071H18.3511V16.0646ZM36.6109 16.0646C36.6109 15.6278 36.8971 15.269 37.3649 15.269C37.8124 15.269 38.1135 15.6123 38.1135 16.0646C38.1135 16.5169 37.8124 16.8602 37.3649 16.8602C36.8971 16.8602 36.6109 16.5014 36.6109 16.0646ZM38.6235 16.0646V13.8241H38.0825V15.1238C37.9112 14.9 37.6511 14.7596 37.2976 14.7596C36.6008 14.7596 36.0545 15.3059 36.0545 16.0646C36.0545 16.8239 36.6008 17.3696 37.2976 17.3696C37.6511 17.3696 37.9112 17.2292 38.0825 17.0054V17.3071H38.6235V16.0646ZM25.0584 15.2434C25.4065 15.2434 25.6303 15.4618 25.6874 15.8462H24.3978C24.4555 15.4874 24.6733 15.2434 25.0584 15.2434ZM25.0691 14.7596C24.3407 14.7596 23.8313 15.2898 23.8313 16.0646C23.8313 16.8549 24.3615 17.3696 25.1054 17.3696C25.4797 17.3696 25.8225 17.2762 26.1242 17.0215L25.8594 16.621C25.6511 16.787 25.3857 16.8811 25.1363 16.8811C24.7882 16.8811 24.471 16.7198 24.3931 16.2723H26.2384C26.2438 16.205 26.2491 16.1372 26.2491 16.0646C26.2438 15.2898 25.7653 14.7596 25.0691 14.7596ZM31.5937 16.0646C31.5937 15.6278 31.8799 15.269 32.3476 15.269C32.7946 15.269 33.0963 15.6123 33.0963 16.0646C33.0963 16.5169 32.7946 16.8602 32.3476 16.8602C31.8799 16.8602 31.5937 16.5014 31.5937 16.0646ZM33.6057 16.0646V14.822H33.0653V15.1238C32.8933 14.9 32.6339 14.7596 32.2804 14.7596C31.5835 14.7596 31.0373 15.3059 31.0373 16.0646C31.0373 16.8239 31.5835 17.3696 32.2804 17.3696C32.6339 17.3696 32.8933 17.2292 33.0653 17.0054V17.3071H33.6057V16.0646ZM28.542 16.0646C28.542 16.8186 29.0669 17.3696 29.8679 17.3696C30.2422 17.3696 30.4916 17.2863 30.7617 17.0733L30.5023 16.6365C30.2993 16.7823 30.0863 16.8602 29.8518 16.8602C29.4204 16.8549 29.1032 16.543 29.1032 16.0646C29.1032 15.5861 29.4204 15.2743 29.8518 15.269C30.0863 15.269 30.2993 15.3469 30.5023 15.4927L30.7617 15.0559C30.4916 14.8429 30.2422 14.7596 29.8679 14.7596C29.0669 14.7596 28.542 15.3106 28.542 16.0646ZM35.5088 14.7596C35.1969 14.7596 34.994 14.9054 34.8536 15.1238V14.822H34.318V17.3071H34.8589V15.914C34.8589 15.5028 35.0357 15.2743 35.3892 15.2743C35.4987 15.2743 35.6129 15.2898 35.7272 15.3368L35.8938 14.8274C35.7742 14.7804 35.6183 14.7596 35.5088 14.7596ZM21.0236 15.0196C20.7636 14.8482 20.4053 14.7596 20.0102 14.7596C19.3806 14.7596 18.9753 15.0613 18.9753 15.5552C18.9753 15.9605 19.2771 16.2104 19.8329 16.2883L20.0882 16.3246C20.3845 16.3663 20.5244 16.4443 20.5244 16.5847C20.5244 16.7769 20.3268 16.8864 19.9578 16.8864C19.5835 16.8864 19.3134 16.7668 19.1313 16.6264L18.8766 17.0471C19.1729 17.2655 19.5472 17.3696 19.9525 17.3696C20.6702 17.3696 21.0861 17.0316 21.0861 16.5585C21.0861 16.1217 20.7588 15.8932 20.2179 15.8152L19.9632 15.7784C19.7293 15.7474 19.5419 15.701 19.5419 15.5344C19.5419 15.3523 19.7186 15.2434 20.015 15.2434C20.3322 15.2434 20.6392 15.363 20.7898 15.4564L21.0236 15.0196ZM27.9957 14.7596C27.6839 14.7596 27.481 14.9054 27.3411 15.1238V14.822H26.8056V17.3071H27.3459V15.914C27.3459 15.5028 27.5226 15.2743 27.8761 15.2743C27.9856 15.2743 28.0999 15.2898 28.2141 15.3368L28.3808 14.8274C28.2612 14.7804 28.1052 14.7596 27.9957 14.7596ZM23.3844 14.822H22.5007V14.0681H21.9544V14.822H21.4503V15.316H21.9544V16.4496C21.9544 17.0263 22.1781 17.3696 22.8173 17.3696C23.0517 17.3696 23.3219 17.297 23.4933 17.1774L23.3374 16.7144C23.1761 16.8079 22.9994 16.8549 22.8589 16.8549C22.5887 16.8549 22.5007 16.6882 22.5007 16.4389V15.316H23.3844V14.822ZM15.3048 17.3071V15.7474C15.3048 15.1601 14.9305 14.7649 14.3271 14.7596C14.0099 14.7542 13.6826 14.853 13.4535 15.2017C13.2821 14.9262 13.0119 14.7596 12.6323 14.7596C12.3668 14.7596 12.1074 14.8375 11.9045 15.1285V14.822H11.3635V17.3071H11.9092V15.9295C11.9092 15.4981 12.1485 15.269 12.518 15.269C12.8768 15.269 13.0583 15.5028 13.0583 15.9242V17.3071H13.6046V15.9295C13.6046 15.4981 13.854 15.269 14.2128 15.269C14.5818 15.269 14.7585 15.5028 14.7585 15.9242V17.3071H15.3048Z" fill="white"/>
</svg>
