<svg width="50" height="32" viewBox="0 0 50 32" fill="none" xmlns="http://www.w3.org/2000/svg">
<rect width="50" height="32" rx="3" fill="#F9F9F9"/>
<path d="M8.7692 16.2741C8.95122 16.3119 9.11467 16.3304 9.35464 16.3304C10.2944 16.3304 10.9277 15.7349 10.9277 14.9786C10.9277 14.2981 10.4386 14.0527 9.80586 14.0527C9.527 14.0527 9.316 14.0717 9.18178 14.109L8.7692 16.2741ZM8.24147 13.3247C8.63498 13.2298 9.22042 13.1734 9.79595 13.1734C10.4007 13.1734 11.0339 13.2959 11.4559 13.6272C11.8301 13.9107 12.0508 14.3259 12.0508 14.8939C12.0508 15.6497 11.686 16.2648 11.2254 16.6237C10.7075 17.0302 9.96805 17.2288 9.20059 17.2288C8.97003 17.2288 8.7692 17.2 8.59634 17.1814L8.12606 19.5922H7.03271L8.24147 13.3247Z" fill="black"/>
<path d="M15.015 15.7821C14.9001 15.7533 14.7564 15.735 14.5549 15.735C13.5281 15.735 12.722 16.8792 12.722 17.9286C12.722 18.4099 12.9043 18.8074 13.3939 18.8074C13.9211 18.8074 14.5549 18.165 14.7755 16.9924L15.015 15.7821ZM14.5643 19.5922C14.5643 19.3175 14.6024 18.9494 14.6413 18.5612H14.622C14.1616 19.4032 13.5375 19.6959 12.9427 19.6959C12.1081 19.6959 11.5605 19.053 11.5605 18.1269C11.5605 16.5577 12.6737 14.8842 14.852 14.8842C15.3604 14.8842 15.9075 14.9786 16.2723 15.0921L15.7829 17.4933C15.6482 18.1738 15.5717 19.0438 15.591 19.5922H14.5643Z" fill="black"/>
<path d="M22.6227 17.7675C22.6227 18.4002 22.9585 18.8457 23.5343 18.8457C24.3691 18.8457 24.9258 17.7107 24.9258 16.7938C24.9258 16.3208 24.7047 15.7347 24.0336 15.7347C23.1411 15.7347 22.6227 16.9073 22.6227 17.7675ZM26.0772 16.7848C26.0772 18.3536 24.9734 19.6957 23.381 19.6957C22.2002 19.6957 21.4717 18.8923 21.4717 17.7953C21.4717 16.2361 22.5749 14.8842 24.1678 14.8842C25.4246 14.8842 26.0772 15.7728 26.0772 16.7848Z" fill="black"/>
<path d="M26.2871 19.5922L26.8919 16.4156C27.0068 15.8671 27.0739 15.385 27.1316 14.9883H28.1301L28.0244 15.8108H28.0432C28.4746 15.196 29.0699 14.8842 29.7225 14.8842C30.3938 14.8842 30.9122 15.2816 30.9122 16.1511C30.9122 16.3587 30.8745 16.6801 30.8262 16.9072L30.3168 19.5922H29.1942L29.6927 16.9924C29.7225 16.8223 29.7509 16.6237 29.7509 16.4439C29.7509 16.0562 29.6071 15.782 29.1658 15.782C28.6573 15.782 28.0045 16.3868 27.8032 17.4652L27.4003 19.5922H26.2871Z" fill="black"/>
<path d="M33.8858 15.7066C33.1849 15.7066 32.7248 16.3209 32.5906 16.8791C33.7416 16.8884 34.4811 16.7371 34.4811 16.1796C34.4811 15.8866 34.2411 15.7066 33.8858 15.7066ZM34.9509 19.3272C34.49 19.5633 33.867 19.6958 33.3003 19.6958C32.0062 19.6958 31.3821 18.9117 31.3821 17.7865C31.3821 16.3968 32.4177 14.8844 34.0299 14.8844C34.9509 14.8844 35.5363 15.404 35.5363 16.1796C35.5363 17.361 34.2798 17.7389 32.4759 17.7013C32.4564 17.8618 32.4947 18.1736 32.6005 18.3534C32.783 18.6657 33.1178 18.8263 33.5599 18.8263C34.0881 18.8263 34.5096 18.6938 34.8464 18.5237L34.9509 19.3272Z" fill="black"/>
<path d="M38.2315 15.7066C37.5314 15.7066 37.0705 16.3209 36.9363 16.8791C38.0873 16.8884 38.8268 16.7371 38.8268 16.1796C38.8268 15.8866 38.5869 15.7066 38.2315 15.7066ZM39.2966 19.3272C38.8365 19.5633 38.2127 19.6958 37.647 19.6958C36.3519 19.6958 35.7278 18.9117 35.7278 17.7865C35.7278 16.3968 36.7634 14.8844 38.3756 14.8844C39.2966 14.8844 39.8831 15.404 39.8831 16.1796C39.8831 17.361 38.6255 17.7389 36.8216 17.7013C36.8018 17.8618 36.8404 18.1736 36.9462 18.3534C37.1287 18.6657 37.4643 18.8263 37.9056 18.8263C38.4338 18.8263 38.8553 18.6938 39.1921 18.5237L39.2966 19.3272Z" fill="black"/>
<path d="M39.9492 19.5922L40.496 16.7559C40.6206 16.1038 40.6877 15.3948 40.735 14.9883H41.7045C41.6758 15.3001 41.6473 15.6214 41.599 15.9528H41.6275C41.9455 15.3379 42.4529 14.8842 43.0867 14.8842C43.1736 14.8842 43.2595 14.8939 43.3365 14.8939L43.1154 15.9716C43.0579 15.9618 42.9812 15.9618 42.9041 15.9618C42.1072 15.9618 41.599 16.7559 41.4173 17.7389L41.0619 19.5922H39.9492Z" fill="black"/>
<path d="M44.1855 15.4095H44.2674C44.3513 15.4095 44.4067 15.3634 44.4067 15.2938C44.4067 15.2154 44.3485 15.1811 44.2646 15.1811C44.226 15.1811 44.1985 15.1838 44.1855 15.1868V15.4095ZM44.1055 15.1317C44.1461 15.1245 44.2044 15.1192 44.2585 15.1192C44.3434 15.1192 44.3998 15.1362 44.4372 15.1693C44.468 15.1961 44.4858 15.2379 44.4858 15.286C44.4858 15.3651 44.4352 15.4187 44.3701 15.44V15.443C44.4174 15.459 44.4451 15.5029 44.4608 15.566C44.4807 15.6501 44.4954 15.7095 44.5084 15.7333H44.4255C44.4156 15.7147 44.4016 15.6634 44.3859 15.5875C44.367 15.5034 44.3327 15.4723 44.2605 15.4693H44.1855V15.7333H44.1055V15.1317Z" fill="black"/>
<path d="M44.2892 14.8843C43.9842 14.8843 43.7363 15.1285 43.7363 15.429C43.7363 15.7296 43.9842 15.974 44.2892 15.974C44.5943 15.974 44.8421 15.7296 44.8421 15.429C44.8421 15.1285 44.5943 14.8843 44.2892 14.8843ZM44.2892 14.9685C44.547 14.9685 44.7562 15.1741 44.7562 15.429C44.7562 15.6837 44.547 15.8901 44.2892 15.8901C44.0307 15.8901 43.8212 15.6837 43.8212 15.429C43.8212 15.1741 44.0307 14.9685 44.2892 14.9685Z" fill="black"/>
<path d="M16.6527 10.5567C16.6992 11.5955 17.6103 15.5598 17.6103 15.5598C17.9451 16.3627 18.2334 15.5598 18.2334 15.5598C19.3356 12.303 17.0831 10.4157 17.0831 10.4157C16.5081 10.0846 16.6527 10.5567 16.6527 10.5567ZM29.7314 9.99073C29.7314 9.99073 30.8342 10.7458 29.7314 10.8873C29.7314 10.8873 25.611 11.3591 22.545 14.1919C22.545 14.1919 17.9451 18.1553 16.2208 22.4979C16.2208 22.4979 15.6458 22.4979 15.8382 21.6487C16.0296 20.7992 17.1789 17.0702 22.3048 12.4926C22.3048 12.4926 27.241 8.05559 29.7314 9.99073Z" fill="#FF4600"/>
</svg>
