<svg width="50" height="32" viewBox="0 0 50 32" fill="none" xmlns="http://www.w3.org/2000/svg">
<rect width="50" height="32" rx="3" fill="#F9F9F9"/>
<path d="M14.874 20.9H12.8013C12.6595 20.9 12.5389 21.0031 12.5167 21.1431L11.6784 26.458C11.6618 26.5629 11.743 26.6574 11.8494 26.6574H12.8389C12.9807 26.6574 13.1014 26.5544 13.1235 26.4141L13.3496 24.9806C13.3714 24.8402 13.4923 24.7372 13.6338 24.7372H14.29C15.6553 24.7372 16.4433 24.0765 16.6491 22.7672C16.7418 22.1944 16.653 21.7444 16.3848 21.4292C16.0902 21.0831 15.5677 20.9 14.874 20.9ZM15.1131 22.8412C14.9998 23.5849 14.4315 23.5849 13.8821 23.5849H13.5693L13.7887 22.1959C13.8018 22.112 13.8745 22.0502 13.9593 22.0502H14.1027C14.477 22.0502 14.8301 22.0502 15.0125 22.2635C15.1213 22.3908 15.1547 22.5799 15.1131 22.8412Z" fill="#253B80"/>
<path d="M21.0698 22.8166H20.0772C19.9927 22.8166 19.9196 22.8784 19.9066 22.9624L19.8627 23.24L19.7933 23.1394C19.5784 22.8275 19.0992 22.7233 18.621 22.7233C17.5242 22.7233 16.5874 23.554 16.4049 24.7193C16.3101 25.3006 16.4449 25.8564 16.7747 26.244C17.0771 26.6004 17.5099 26.7489 18.0248 26.7489C18.9086 26.7489 19.3987 26.1807 19.3987 26.1807L19.3544 26.4565C19.3377 26.5619 19.419 26.6565 19.5247 26.6565H20.4188C20.5609 26.6565 20.6809 26.5535 20.7034 26.4131L21.2398 23.016C21.2568 22.9115 21.1759 22.8166 21.0698 22.8166ZM19.6863 24.7484C19.5905 25.3154 19.1404 25.6961 18.5664 25.6961C18.2782 25.6961 18.0479 25.6036 17.9 25.4285C17.7533 25.2545 17.6975 25.0069 17.7442 24.7311C17.8336 24.1689 18.2912 23.7758 18.8565 23.7758C19.1383 23.7758 19.3674 23.8695 19.5184 24.0462C19.6696 24.2247 19.7296 24.4738 19.6863 24.7484Z" fill="#253B80"/>
<path d="M26.3559 22.8165H25.3585C25.2633 22.8165 25.1739 22.8638 25.12 22.9429L23.7443 24.9692L23.1612 23.022C23.1245 22.9002 23.0121 22.8165 22.8848 22.8165H21.9047C21.7856 22.8165 21.7028 22.9329 21.7407 23.045L22.8394 26.2691L21.8065 27.7272C21.7253 27.842 21.8071 27.9999 21.9474 27.9999H22.9436C23.0382 27.9999 23.1267 27.9539 23.1803 27.8763L26.4977 23.0878C26.5771 22.9732 26.4956 22.8165 26.3559 22.8165Z" fill="#253B80"/>
<path d="M29.6579 20.8994H27.585C27.4434 20.8994 27.3228 21.0025 27.3007 21.1425L26.4624 26.4574C26.4457 26.5623 26.5269 26.6568 26.6327 26.6568H27.6965C27.7953 26.6568 27.8798 26.5847 27.8953 26.4865L28.1332 24.9799C28.155 24.8396 28.276 24.7366 28.4175 24.7366H29.0733C30.439 24.7366 31.2266 24.0759 31.4327 22.7666C31.5258 22.1938 31.4364 21.7438 31.1681 21.4286C30.8739 21.0825 30.3517 20.8994 29.6579 20.8994ZM29.8971 22.8406C29.784 23.5843 29.2158 23.5843 28.666 23.5843H28.3535L28.5733 22.1953C28.5863 22.1114 28.6584 22.0496 28.7436 22.0496H28.8869C29.2609 22.0496 29.6143 22.0496 29.7968 22.2629C29.9056 22.3902 29.9386 22.5793 29.8971 22.8406Z" fill="#179BD7"/>
<path d="M35.8534 22.8166H34.8615C34.7763 22.8166 34.7039 22.8784 34.6911 22.9624L34.6472 23.24L34.5775 23.1394C34.3626 22.8275 33.8838 22.7233 33.4055 22.7233C32.3087 22.7233 31.3722 23.554 31.1898 24.7193C31.0952 25.3006 31.2295 25.8564 31.5592 26.244C31.8623 26.6004 32.2945 26.7489 32.8094 26.7489C33.6931 26.7489 34.1832 26.1807 34.1832 26.1807L34.1389 26.4565C34.1223 26.5619 34.2035 26.6565 34.3099 26.6565H35.2036C35.3452 26.6565 35.4658 26.5535 35.4879 26.4131L36.0246 23.016C36.041 22.9115 35.9598 22.8166 35.8534 22.8166ZM34.4699 24.7484C34.3747 25.3154 33.9241 25.6961 33.35 25.6961C33.0624 25.6961 32.8315 25.6036 32.6836 25.4285C32.5369 25.2545 32.4817 25.0069 32.5278 24.7311C32.6178 24.1689 33.0749 23.7758 33.6401 23.7758C33.9219 23.7758 34.1511 23.8695 34.302 24.0462C34.4538 24.2247 34.5138 24.4738 34.4699 24.7484Z" fill="#179BD7"/>
<path d="M37.0235 21.0451L36.1728 26.4573C36.1562 26.5622 36.2374 26.6568 36.3432 26.6568H37.1984C37.3406 26.6568 37.4612 26.5537 37.483 26.4134L38.3219 21.0988C38.3386 20.9939 38.2573 20.899 38.1516 20.899H37.1939C37.1093 20.8994 37.0366 20.9612 37.0235 21.0451Z" fill="#179BD7"/>
<path d="M23.0688 17.018L23.3023 15.5347L22.7821 15.5226H20.2981L22.0244 4.57694C22.0297 4.5439 22.0471 4.51309 22.0726 4.49121C22.098 4.46933 22.1306 4.45728 22.1646 4.45728H26.353C27.7434 4.45728 28.703 4.74662 29.204 5.31773C29.4389 5.58564 29.5885 5.86561 29.6608 6.17372C29.7367 6.497 29.7381 6.88324 29.6639 7.35433L29.6586 7.38871V7.69056L29.8935 7.82362C30.0913 7.92856 30.2484 8.04867 30.369 8.1862C30.5699 8.41527 30.6999 8.7064 30.7548 9.05156C30.8115 9.40655 30.7928 9.82896 30.6999 10.3072C30.5927 10.8573 30.4195 11.3364 30.1855 11.7285C29.9703 12.0897 29.6961 12.3893 29.3706 12.6215C29.0598 12.8421 28.6905 13.0096 28.273 13.1167C27.8685 13.2221 27.4072 13.2752 26.9013 13.2752H26.5753C26.3422 13.2752 26.1159 13.3592 25.9381 13.5097C25.76 13.6633 25.6421 13.8731 25.6059 14.1026L25.5814 14.2362L25.1688 16.8506L25.15 16.9466C25.1451 16.9769 25.1366 16.9921 25.1241 17.0024C25.113 17.0118 25.0969 17.018 25.0813 17.018H23.0688Z" fill="#253B80"/>
<path d="M30.1157 7.42346C30.1032 7.50339 30.0889 7.5851 30.0728 7.66905C29.5204 10.5049 27.6307 11.4846 25.2173 11.4846H23.9884C23.6933 11.4846 23.4446 11.6989 23.3986 11.9901L22.7694 15.9802L22.5913 17.1113C22.5614 17.3024 22.7087 17.4747 22.9016 17.4747H25.0811C25.3392 17.4747 25.5584 17.2872 25.5991 17.0327L25.6205 16.9219L26.0308 14.3178L26.0572 14.1749C26.0974 13.9195 26.3171 13.732 26.5752 13.732H26.9011C29.0127 13.732 30.6658 12.8746 31.1489 10.3937C31.3507 9.35736 31.2463 8.49199 30.7122 7.88338C30.5506 7.69986 30.3501 7.5476 30.1157 7.42346Z" fill="#179BD7"/>
<path d="M29.5379 7.19313C29.4536 7.16857 29.3665 7.14624 29.2772 7.12615C29.1874 7.1065 29.0954 7.08909 29.0008 7.07391C28.6695 7.02032 28.3064 6.99487 27.9175 6.99487H24.6347C24.5538 6.99487 24.477 7.01318 24.4083 7.04622C24.2569 7.11901 24.1444 7.26234 24.1171 7.43783L23.4188 11.8611L23.3987 11.9901C23.4447 11.699 23.6934 11.4847 23.9885 11.4847H25.2174C27.6308 11.4847 29.5205 10.5046 30.0729 7.66913C30.0894 7.58518 30.1032 7.50346 30.1157 7.42354C29.976 7.34941 29.8246 7.28601 29.6616 7.23198C29.6214 7.21858 29.5799 7.20563 29.5379 7.19313Z" fill="#222D65"/>
<path d="M24.1171 7.43779C24.1443 7.26231 24.2569 7.11897 24.4082 7.04664C24.4774 7.01359 24.5538 6.99529 24.6346 6.99529H27.9175C28.3064 6.99529 28.6694 7.02074 29.0007 7.07432C29.0954 7.0895 29.1874 7.10692 29.2771 7.12656C29.3664 7.14666 29.4535 7.16898 29.5379 7.19354C29.5799 7.20605 29.6214 7.21899 29.662 7.23194C29.825 7.28597 29.9764 7.34983 30.1162 7.4235C30.2805 6.37551 30.1148 5.66196 29.5482 5.01584C28.9235 4.30453 27.796 4 26.3533 4H22.1649C21.8702 4 21.6188 4.21433 21.5732 4.50591L19.8287 15.5641C19.7943 15.7829 19.9631 15.9802 20.1837 15.9802H22.7695L23.4187 11.8611L24.1171 7.43779Z" fill="#253B80"/>
</svg>
